# xmcd
#
# Track frame offsets:
#	150
#	12803
#	25885
#	38098
#	52231
#	66568
#	79819
#	93073
#	106786
#	122412
#	134339
#
# Disc length: 1972 seconds
#
# Revision: 0
# Processed by: cddbd v1.5PL3 Copyright (c) Steve Scherf et al.
# Submitted via: dBpowerAMP V4.0
#
DISCID=8807b20b
DTITLE=Various Artist - The Blues Heritage
DYEAR=1900
DGENRE=Blues
TTITLE0=Sweet Lovin' Man
TTITLE1=Sugarfoot Stomp
TTITLE2=Southern Stomps
TTITLE3=I Want a Big Butter and Egg Man
TTITLE4=Men Old Bed Bug Blues
TTITLE5=I'm Not Rough
TTITLE6=Working Man Blues
TTITLE7=Snake Rag
TTITLE8=Keyhole Blues
TTITLE9=Dippermouth Blues
TTITLE10=High Society
EXTD=
EXTT0=
EXTT1=
EXTT2=
EXTT3=
EXTT4=
EXTT5=
EXTT6=
EXTT7=
EXTT8=
EXTT9=
EXTT10=
PLAYORDER=
